<svg width="67" height="101" viewBox="0 0 67 101" fill="none" xmlns="http://www.w3.org/2000/svg">
<g filter="url(#filter0_dddddd_20_118)">
<path d="M10.5655 92.0177L10.5671 92.019C15.6541 95.9945 23.4335 97.9375 33.8125 97.9375C43.6257 97.9375 51.0215 95.7372 55.9012 91.2428L55.903 91.2412C60.7875 86.6994 63.1875 79.9201 63.1875 71C63.1875 64.6992 61.4729 59.6112 57.9966 55.7905C54.9061 52.3148 50.5798 49.9586 45.0578 48.6942C50.1496 46.8654 54.0242 44.3081 56.6412 40.9989C59.601 37.3091 61.0625 32.6085 61.0625 26.9375C61.0625 19.0872 58.7162 13.1924 53.9398 9.36154C49.2265 5.50624 42.0061 3.625 32.375 3.625C22.6934 3.625 15.3486 5.63482 10.4296 9.74116C5.4837 13.8699 3.0625 20.414 3.0625 29.25V29.75H3.5625H13.6875H14.1875V29.25C14.1875 25.0413 14.8287 21.8477 16.0608 19.6201C17.3294 17.4016 19.2483 15.8534 21.8478 14.9736C24.4829 14.0817 28.0674 13.625 32.625 13.625C36.8434 13.625 40.1693 14.1224 42.6294 15.0903C45.074 16.0521 46.8304 17.5611 47.9348 19.6121C49.0484 21.6802 49.625 24.4643 49.625 28C49.625 33.0275 47.8107 36.8043 44.2081 39.4066C40.6188 41.9876 35.4051 43.3125 28.5 43.3125H20.6875H20.1875V43.8125V53.75V54.254L20.6915 54.25L28.5 54.1875C28.5007 54.1875 28.5014 54.1875 28.5021 54.1875C36.071 54.1878 41.781 55.6786 45.702 58.589C49.5942 61.4781 51.5625 65.7532 51.5625 71.5C51.5625 75.7564 51.0033 79.0496 49.9211 81.4153C48.8526 83.7097 47.0761 85.3741 44.5593 86.4128L44.5566 86.4139C42.0617 87.4602 38.5338 88 33.9375 88C29.0055 88 25.1082 87.5017 22.2226 86.5263C19.3505 85.5555 17.2891 84.0349 15.9877 81.9868C14.7186 79.8824 14.0625 77.0664 14.0625 73.5V72.9874L13.5501 73.0002L3.48758 73.2502L3 73.2623V73.75C3 81.8974 5.49562 88.0219 10.5655 92.0177Z" stroke="white"/>
</g>
<defs>
<filter id="filter0_dddddd_20_118" x="0.0999999" y="0.725" width="65.9875" height="100.113" filterUnits="userSpaceOnUse" color-interpolation-filters="sRGB">
<feFlood flood-opacity="0" result="BackgroundImageFix"/>
<feColorMatrix in="SourceAlpha" type="matrix" values="0 0 0 0 0 0 0 0 0 0 0 0 0 0 0 0 0 0 127 0" result="hardAlpha"/>
<feOffset/>
<feGaussianBlur stdDeviation="1.2"/>
<feColorMatrix type="matrix" values="0 0 0 0 0 0 0 0 0 1 0 0 0 0 1 0 0 0 1 0"/>
<feBlend mode="normal" in2="BackgroundImageFix" result="effect1_dropShadow_20_118"/>
<feColorMatrix in="SourceAlpha" type="matrix" values="0 0 0 0 0 0 0 0 0 0 0 0 0 0 0 0 0 0 127 0" result="hardAlpha"/>
<feOffset/>
<feGaussianBlur stdDeviation="1.2"/>
<feColorMatrix type="matrix" values="0 0 0 0 0 0 0 0 0 1 0 0 0 0 1 0 0 0 1 0"/>
<feBlend mode="normal" in2="effect1_dropShadow_20_118" result="effect2_dropShadow_20_118"/>
<feColorMatrix in="SourceAlpha" type="matrix" values="0 0 0 0 0 0 0 0 0 0 0 0 0 0 0 0 0 0 127 0" result="hardAlpha"/>
<feOffset/>
<feGaussianBlur stdDeviation="1.2"/>
<feColorMatrix type="matrix" values="0 0 0 0 0 0 0 0 0 1 0 0 0 0 1 0 0 0 1 0"/>
<feBlend mode="normal" in2="effect2_dropShadow_20_118" result="effect3_dropShadow_20_118"/>
<feColorMatrix in="SourceAlpha" type="matrix" values="0 0 0 0 0 0 0 0 0 0 0 0 0 0 0 0 0 0 127 0" result="hardAlpha"/>
<feOffset/>
<feGaussianBlur stdDeviation="1.2"/>
<feColorMatrix type="matrix" values="0 0 0 0 0 0 0 0 0 1 0 0 0 0 1 0 0 0 1 0"/>
<feBlend mode="normal" in2="effect3_dropShadow_20_118" result="effect4_dropShadow_20_118"/>
<feColorMatrix in="SourceAlpha" type="matrix" values="0 0 0 0 0 0 0 0 0 0 0 0 0 0 0 0 0 0 127 0" result="hardAlpha"/>
<feOffset/>
<feGaussianBlur stdDeviation="1.2"/>
<feColorMatrix type="matrix" values="0 0 0 0 0 0 0 0 0 1 0 0 0 0 1 0 0 0 1 0"/>
<feBlend mode="normal" in2="effect4_dropShadow_20_118" result="effect5_dropShadow_20_118"/>
<feColorMatrix in="SourceAlpha" type="matrix" values="0 0 0 0 0 0 0 0 0 0 0 0 0 0 0 0 0 0 127 0" result="hardAlpha"/>
<feOffset/>
<feGaussianBlur stdDeviation="1.2"/>
<feColorMatrix type="matrix" values="0 0 0 0 0 0 0 0 0 1 0 0 0 0 1 0 0 0 1 0"/>
<feBlend mode="normal" in2="effect5_dropShadow_20_118" result="effect6_dropShadow_20_118"/>
<feBlend mode="normal" in="SourceGraphic" in2="effect6_dropShadow_20_118" result="shape"/>
</filter>
</defs>
</svg>
